<?xml version="1.0" ?><!DOCTYPE svg  PUBLIC '-//W3C//DTD SVG 1.1//EN'  'http://www.w3.org/Graphics/SVG/1.1/DTD/svg11.dtd'><svg height="8.4666mm" style="shape-rendering:geometricPrecision; text-rendering:geometricPrecision; image-rendering:optimizeQuality; fill-rule:evenodd; clip-rule:evenodd" version="1.1" viewBox="0 0 846.66 846.66" width="8.4666mm" xml:space="preserve" xmlns="http://www.w3.org/2000/svg" xmlns:xlink="http://www.w3.org/1999/xlink"><defs><style type="text/css">
   <![CDATA[
    .fil0 {fill:black;fill-rule:nonzero}
   ]]>
  </style></defs><g id="Layer_x0020_1"><path class="fil0" d="M160.05 103.82l657.53 0c11.46,0 20.75,9.29 20.75,20.76l0 510.2c0,59.48 -48.58,108.06 -108.06,108.06l-613.88 0c-59.48,0 -108.06,-48.58 -108.06,-108.06l0 -357.42c0,-11.46 9.29,-20.76 20.76,-20.76l110.2 0 0 -132.02c0,-11.47 9.29,-20.76 20.76,-20.76zm323.3 332.84l229.18 0c11.46,0 20.76,9.3 20.76,20.76l0 174.61c0,11.46 -9.3,20.76 -20.76,20.76l-229.18 0c-11.47,0 -20.76,-9.3 -20.76,-20.76l0 -174.61c0,-11.46 9.29,-20.76 20.76,-20.76zm208.42 41.52l-187.66 0 0 133.09 187.66 0 0 -133.09zm-170.22 -205.98c-27.3,0 -27.3,-41.52 0,-41.52l199.17 0c27.3,0 27.3,41.52 0,41.52l-199.17 0zm0 73.66c-27.3,0 -27.3,-41.51 0,-41.51l199.17 0c27.3,0 27.3,41.51 0,41.51l-199.17 0zm-264.65 -157.47l158.25 0c11.46,0 20.76,9.3 20.76,20.76l0 158.24c0,11.47 -9.3,20.76 -20.76,20.76l-158.25 0c-11.46,0 -20.76,-9.29 -20.76,-20.76l0 -158.24c0,-11.46 9.3,-20.76 20.76,-20.76zm137.49 41.52l-116.73 0 0 116.73 116.73 0 0 -116.73zm-255.1 471.41l0 -403.2 -89.45 0 0 336.66c0,36.55 30,66.54 66.55,66.54l22.9 0zm657.53 -555.99l-616.02 0 0 555.99 549.47 0c36.56,0 66.55,-29.98 66.55,-66.54l0 -489.45z"/></g></svg>