<svg contentscripttype="text/ecmascript" viewBox="0 0 1792 2048" xml:space="preserve" xmlns="http://www.w3.org/2000/svg"><path d="M640 384h512V256H640v128zm1152 640v480c0 44-15.667 81.667-47 113s-69 47-113 47H160c-44 0-81.667-15.667-113-47s-47-69-47-113v-480h672v160c0 17.333 6.333 32.333 19 45s27.667 19 45 19h320c17.333 0 32.333-6.333 45-19s19-27.667 19-45v-160h672zm-768 0v128H768v-128h256zm768-480v384H0V544c0-44 15.667-81.667 47-113s69-47 113-47h352V224c0-26.667 9.333-49.333 28-68s41.333-28 68-28h576c26.667 0 49.333 9.333 68 28s28 41.333 28 68v160h352c44 0 81.667 15.667 113 47s47 69 47 113z" fill="#ffffff" class="fill-000000"></path></svg>