<svg viewBox="0 0 64 64" xmlns="http://www.w3.org/2000/svg"><path d="M36 3v24h1v1h24V3H36z" fill="#ffffff" class="fill-e5e6eb"></path><path d="M37 3v9.38a4 4 0 1 1 0 5.24V27h-9.38a4 4 0 1 0-5.24 0H13V3ZM51.62 27a4 4 0 1 0-5.24 0H37v10.38a4 4 0 1 1 0 5.24V51h24V27Z" fill="#ffffff" class="fill-d9dae2"></path><path d="M28 45a8 8 0 1 0-15.133 3.621A17.9 17.9 0 0 1 15 56.73V57h10v-.276a16.562 16.562 0 0 1 2.034-7.915A7.943 7.943 0 0 0 28 45Z" fill="#000000" class="fill-027de5"></path><path d="M21 58h-2v-8a3 3 0 0 1 3-3 1 1 0 0 0 1-1v-.893a1.083 1.083 0 0 0-.825-1.092A1 1 0 0 0 21 45a1 1 0 0 1-2 0 1 1 0 0 0-2 0h-2a3 3 0 0 1 5-2.235 1.34 1.34 0 0 1 .059-.051 3.009 3.009 0 0 1 2.441-.674 3.084 3.084 0 0 1 2.5 3.067V46a3 3 0 0 1-3 3 1 1 0 0 0-1 1Z" fill="#ffffff" class="fill-ffffff"></path><path d="M19 30h2v4h-2z" fill="#000000" class="fill-027de5"></path><path transform="rotate(-59.998 7.875 39)" d="M6.875 37h2v4h-2z" fill="#000000" class="fill-027de5"></path><path transform="rotate(-29.995 32.125 38.999)" d="M30.125 38h4v2h-4z" fill="#000000" class="fill-027de5"></path><path transform="rotate(-30.002 13 33.876)" d="M12 31.876h2v4h-2z" fill="#000000" class="fill-027de5"></path><path transform="rotate(-60.005 27 33.875)" d="M25 32.875h4v2h-4z" fill="#000000" class="fill-027de5"></path><path d="M15 57h10v4H15z" fill="#000000" class="fill-0468ad"></path><path d="M37 51h24V27a24 24 0 0 1-24 24Z" fill="#000000" class="fill-cfcfd9"></path><path d="M15 11V5h6l-6 6z" fill="#ffffff" class="fill-ffffff"></path><path d="M61 2H13a1 1 0 0 0-1 1v24a1 1 0 0 0 1 1h9.38a1 1 0 0 0 .658-1.753A2.955 2.955 0 0 1 22 24a3 3 0 0 1 6 0 2.955 2.955 0 0 1-1.038 2.247A1 1 0 0 0 27.62 28H36v9.38a1 1 0 0 0 1.753.658A2.955 2.955 0 0 1 40 37a3 3 0 0 1 0 6 2.955 2.955 0 0 1-2.247-1.038A1 1 0 0 0 36 42.62V51a1 1 0 0 0 1 1h24a1 1 0 0 0 1-1V3a1 1 0 0 0-1-1Zm-1 24h-6.427A4.91 4.91 0 0 0 54 24a5 5 0 0 0-10 0 4.91 4.91 0 0 0 .427 2H38v-6.427A4.91 4.91 0 0 0 40 20a5 5 0 0 0 0-10 4.91 4.91 0 0 0-2 .427V4h22Zm-35-7a5.006 5.006 0 0 0-5 5 4.91 4.91 0 0 0 .427 2H14V4h22v8.38a1 1 0 0 0 1.753.658A2.955 2.955 0 0 1 40 12a3 3 0 0 1 0 6 2.955 2.955 0 0 1-2.247-1.038A1 1 0 0 0 36 17.62V26h-6.427A4.91 4.91 0 0 0 30 24a5.006 5.006 0 0 0-5-5Zm35 31H38v-5.427A4.91 4.91 0 0 0 40 45a5 5 0 0 0 0-10 4.91 4.91 0 0 0-2 .427V28h8.38a1 1 0 0 0 .658-1.753A2.955 2.955 0 0 1 46 24a3 3 0 0 1 6 0 2.955 2.955 0 0 1-1.038 2.247A1 1 0 0 0 51.62 28H60Z" fill="#000000" class="fill-000000"></path></svg>