<svg data-name="Layer 1" viewBox="0 0 128 128" xmlns="http://www.w3.org/2000/svg"><path d="M64 16a47.5 47.5 0 1 1-47.5 47.5A47.55 47.55 0 0 1 64 16m0-6.5a54 54 0 1 0 54 54 54 54 0 0 0-54-54Z" fill="#000000" class="fill-062b31"></path><path d="M65.08 16c2.09 0 5.78 3.66 8.93 11.69 3.71 9.46 5.75 22.18 5.75 35.81s-2 26.35-5.75 35.81c-3.15 8-6.83 11.69-8.93 11.69s-5.78-3.66-8.93-11.69c-3.7-9.46-5.75-22.18-5.75-35.81s2-26.35 5.75-35.81C59.31 19.65 63 16 65.08 16m0-6.5c-11.7 0-21.18 24.18-21.18 54s9.48 54 21.18 54 21.18-24.18 21.18-54-9.48-54-21.18-54Z" fill="#000000" class="fill-062b31"></path><path d="M17.66 80.37h94.84M17.66 46.62h94.84" fill="none" stroke="#000000" stroke-miterlimit="10" stroke-width="6.5px" class="stroke-062b31"></path></svg>