<?xml version="1.0" ?><svg height="16px" id="icon" style="enable-background:new 0 0 16 16;" version="1.1" viewBox="0 0 16 16" width="16px" xml:space="preserve" xmlns="http://www.w3.org/2000/svg" xmlns:xlink="http://www.w3.org/1999/xlink"><style type="text/css">
	.st0{fill:none;}
</style><title/><path d="M12,7H6V4c0-1.1,0.9-2,2-2s2,0.9,2,2h1c0-1.7-1.3-3-3-3S5,2.3,5,4v3H4C3.4,7,3,7.4,3,8v6c0,0.6,0.4,1,1,1h8c0.6,0,1-0.4,1-1  V8C13,7.4,12.6,7,12,7z M12,14H4V8h8V14z"/><rect class="st0" height="16" id="_Transparent_Rectangle_" width="16"/></svg>